<mxfile host="app.diagrams.net" agent="Mozilla/5.0 (Windows NT 10.0; Win64; x64; rv:128.0) Gecko/20100101 Firefox/128.0" version="26.2.14">
  <diagram id="wFE0QG_FPsp0jaGvCLVb" name="Page-1">
    <mxGraphModel dx="784" dy="1118" grid="1" gridSize="10" guides="1" tooltips="1" connect="1" arrows="1" fold="1" page="1" pageScale="1" pageWidth="850" pageHeight="1100" math="0" shadow="0">
      <root>
        <mxCell id="0" />
        <mxCell id="1" parent="0" />
        <mxCell id="BC9_vrdgmfpvslgEBhNV-2" value="Teams" style="shape=ext;margin=3;double=1;whiteSpace=wrap;html=1;align=center;" vertex="1" parent="1">
          <mxGeometry x="100" y="600" width="140" height="70" as="geometry" />
        </mxCell>
        <mxCell id="BC9_vrdgmfpvslgEBhNV-3" value="TeamMember" style="shape=associativeEntity;whiteSpace=wrap;html=1;align=center;" vertex="1" parent="1">
          <mxGeometry x="360" y="490" width="140" height="60" as="geometry" />
        </mxCell>
        <mxCell id="BC9_vrdgmfpvslgEBhNV-10" value="" style="edgeStyle=entityRelationEdgeStyle;fontSize=12;html=1;endArrow=ERoneToMany;rounded=0;exitX=1;exitY=0.5;exitDx=0;exitDy=0;entryX=0;entryY=0.5;entryDx=0;entryDy=0;" edge="1" parent="1" source="BC9_vrdgmfpvslgEBhNV-2" target="BC9_vrdgmfpvslgEBhNV-3">
          <mxGeometry width="100" height="100" relative="1" as="geometry">
            <mxPoint x="270" y="630" as="sourcePoint" />
            <mxPoint x="370" y="530" as="targetPoint" />
          </mxGeometry>
        </mxCell>
        <mxCell id="BC9_vrdgmfpvslgEBhNV-11" value="Users" style="shape=ext;margin=3;double=1;whiteSpace=wrap;html=1;align=center;" vertex="1" parent="1">
          <mxGeometry x="600" y="600" width="140" height="70" as="geometry" />
        </mxCell>
        <mxCell id="BC9_vrdgmfpvslgEBhNV-13" value="TeamLeader" style="shape=associativeEntity;whiteSpace=wrap;html=1;align=center;" vertex="1" parent="1">
          <mxGeometry x="360" y="710" width="140" height="60" as="geometry" />
        </mxCell>
        <mxCell id="BC9_vrdgmfpvslgEBhNV-14" value="TeamMember" style="shape=associativeEntity;whiteSpace=wrap;html=1;align=center;" vertex="1" parent="1">
          <mxGeometry x="360" y="605" width="140" height="60" as="geometry" />
        </mxCell>
        <mxCell id="BC9_vrdgmfpvslgEBhNV-15" value="" style="edgeStyle=entityRelationEdgeStyle;fontSize=12;html=1;endArrow=ERoneToMany;rounded=0;exitX=1;exitY=0.5;exitDx=0;exitDy=0;entryX=0;entryY=0.5;entryDx=0;entryDy=0;" edge="1" parent="1" source="BC9_vrdgmfpvslgEBhNV-2" target="BC9_vrdgmfpvslgEBhNV-14">
          <mxGeometry width="100" height="100" relative="1" as="geometry">
            <mxPoint x="250" y="645" as="sourcePoint" />
            <mxPoint x="370" y="530" as="targetPoint" />
          </mxGeometry>
        </mxCell>
        <mxCell id="BC9_vrdgmfpvslgEBhNV-16" value="" style="edgeStyle=entityRelationEdgeStyle;fontSize=12;html=1;endArrow=ERoneToMany;rounded=0;exitX=1;exitY=0.5;exitDx=0;exitDy=0;entryX=0;entryY=0.5;entryDx=0;entryDy=0;" edge="1" parent="1" source="BC9_vrdgmfpvslgEBhNV-2" target="BC9_vrdgmfpvslgEBhNV-13">
          <mxGeometry width="100" height="100" relative="1" as="geometry">
            <mxPoint x="250" y="645" as="sourcePoint" />
            <mxPoint x="370" y="645" as="targetPoint" />
          </mxGeometry>
        </mxCell>
        <mxCell id="BC9_vrdgmfpvslgEBhNV-17" value="" style="edgeStyle=entityRelationEdgeStyle;fontSize=12;html=1;endArrow=ERoneToMany;rounded=0;exitX=0;exitY=0.5;exitDx=0;exitDy=0;entryX=1;entryY=0.5;entryDx=0;entryDy=0;" edge="1" parent="1" source="BC9_vrdgmfpvslgEBhNV-11" target="BC9_vrdgmfpvslgEBhNV-3">
          <mxGeometry width="100" height="100" relative="1" as="geometry">
            <mxPoint x="250" y="673" as="sourcePoint" />
            <mxPoint x="610" y="360" as="targetPoint" />
            <Array as="points">
              <mxPoint x="520" y="558" />
            </Array>
          </mxGeometry>
        </mxCell>
        <mxCell id="BC9_vrdgmfpvslgEBhNV-18" value="" style="edgeStyle=entityRelationEdgeStyle;fontSize=12;html=1;endArrow=ERoneToMany;rounded=0;exitX=0;exitY=0.5;exitDx=0;exitDy=0;entryX=1;entryY=0.5;entryDx=0;entryDy=0;" edge="1" parent="1" source="BC9_vrdgmfpvslgEBhNV-11" target="BC9_vrdgmfpvslgEBhNV-14">
          <mxGeometry width="100" height="100" relative="1" as="geometry">
            <mxPoint x="610" y="645" as="sourcePoint" />
            <mxPoint x="510" y="530" as="targetPoint" />
            <Array as="points">
              <mxPoint x="530" y="568" />
            </Array>
          </mxGeometry>
        </mxCell>
        <mxCell id="BC9_vrdgmfpvslgEBhNV-19" value="" style="edgeStyle=entityRelationEdgeStyle;fontSize=12;html=1;endArrow=ERoneToMany;rounded=0;entryX=1;entryY=0.5;entryDx=0;entryDy=0;" edge="1" parent="1" source="BC9_vrdgmfpvslgEBhNV-11" target="BC9_vrdgmfpvslgEBhNV-13">
          <mxGeometry width="100" height="100" relative="1" as="geometry">
            <mxPoint x="690" y="780" as="sourcePoint" />
            <mxPoint x="590" y="780" as="targetPoint" />
            <Array as="points">
              <mxPoint x="620" y="713" />
            </Array>
          </mxGeometry>
        </mxCell>
        <mxCell id="BC9_vrdgmfpvslgEBhNV-32" value="" style="edgeStyle=orthogonalEdgeStyle;rounded=0;orthogonalLoop=1;jettySize=auto;html=1;" edge="1" parent="1" source="BC9_vrdgmfpvslgEBhNV-20" target="BC9_vrdgmfpvslgEBhNV-2">
          <mxGeometry relative="1" as="geometry" />
        </mxCell>
        <mxCell id="BC9_vrdgmfpvslgEBhNV-20" value="Projects" style="shape=ext;margin=3;double=1;whiteSpace=wrap;html=1;align=center;" vertex="1" parent="1">
          <mxGeometry x="100" y="480" width="140" height="70" as="geometry" />
        </mxCell>
        <mxCell id="BC9_vrdgmfpvslgEBhNV-34" value="" style="edgeStyle=orthogonalEdgeStyle;rounded=0;orthogonalLoop=1;jettySize=auto;html=1;" edge="1" parent="1" source="BC9_vrdgmfpvslgEBhNV-33" target="BC9_vrdgmfpvslgEBhNV-11">
          <mxGeometry relative="1" as="geometry" />
        </mxCell>
        <mxCell id="BC9_vrdgmfpvslgEBhNV-33" value="Schedules" style="shape=ext;margin=3;double=1;whiteSpace=wrap;html=1;align=center;" vertex="1" parent="1">
          <mxGeometry x="600" y="480" width="140" height="70" as="geometry" />
        </mxCell>
      </root>
    </mxGraphModel>
  </diagram>
</mxfile>
